<?xml version="1.0" standalone="no"?>
<!DOCTYPE svg PUBLIC "-//W3C//DTD SVG 1.1//EN" "http://www.w3.org/Graphics/SVG/1.1/DTD/svg11.dtd" >
<svg xmlns="http://www.w3.org/2000/svg" xmlns:xlink="http://www.w3.org/1999/xlink" version="1.1">
<metadata>
Created by FontForge 20150102 at Fri Jan 30 16:32:56 2015
 By uniteet7
(c) 1990, 2002 Adobe Systems Incorporated. All rights reserved. (c) 1981, 2002 Heidelberger Druckmaschinen AG. All rights reserved.
</metadata>
<defs>
<font id="UniversLTStdLightUltraCn" horiz-adv-x="278" >
  <font-face 
    font-family="UniversLTStdLightUltraCn"
    font-weight="300"
    font-stretch="ultra-condensed"
    units-per-em="1000"
    panose-1="2 11 4 6 2 2 2 6 2 4"
    ascent="724"
    descent="-276"
    x-height="545"
    cap-height="722"
    bbox="-57 -160 1000 875"
    underline-thickness="50"
    underline-position="-50"
    unicode-range="U+0020-FB02"
  />
<missing-glyph horiz-adv-x="500" 
d="M0 0v700h500v-700h-500zM250 395l170 255h-340zM280 350l170 -255v510zM80 50h340l-170 255zM50 605v-510l170 255z" />
    <glyph glyph-name="f_i" unicode="fi" horiz-adv-x="315" 
d="M210 0v545h62v-545h-62zM208 646v76h66v-76h-66zM46 0v495h-31v50h31v100q0 41 17 62t61 21h28v-50h-13q-31 0 -31 -41v-92h44v-50h-44v-495h-62z" />
    <glyph glyph-name="f_l" unicode="fl" horiz-adv-x="315" 
d="M210 0v722h62v-722h-62zM46 0v495h-31v50h31v100q0 41 17 62t61 21h28v-50h-13q-31 0 -31 -41v-92h44v-50h-44v-495h-62z" />
    <glyph glyph-name=".notdef" horiz-adv-x="500" 
d="M0 0v700h500v-700h-500zM250 395l170 255h-340zM280 350l170 -255v510zM80 50h340l-170 255zM50 605v-510l170 255z" />
    <glyph glyph-name=".null" horiz-adv-x="0" 
 />
    <glyph glyph-name="nonmarkingreturn" horiz-adv-x="333" 
 />
    <glyph glyph-name="space" unicode=" " horiz-adv-x="138" 
 />
    <glyph glyph-name="exclam" unicode="!" horiz-adv-x="258" 
d="M100 175l-8 547h74l-8 -547h-58zM96 0v76h66v-76h-66z" />
    <glyph glyph-name="quotedbl" unicode="&#x22;" 
d="M58 558v164h50v-164h-50zM170 558v164h50v-164h-50z" />
    <glyph glyph-name="numbersign" unicode="#" horiz-adv-x="276" 
d="M152 281l23 166h-50l-23 -166h50zM181 491l31 231h50l-31 -231h47v-44h-53l-23 -166h48v-44h-54l-32 -237h-50l32 237h-50l-32 -237h-50l32 237h-48v44h54l23 166h-49v44h55l31 231h50l-31 -231h50z" />
    <glyph glyph-name="dollar" unicode="$" horiz-adv-x="276" 
d="M177 536v71q0 46 -36 46q-40 0 -40 -40v-79q0 -26 15 -51l105 -180q24 -41 24 -94v-83q0 -44 -21 -72t-60 -35v-76h-54v76q-40 4 -60 28q-19 23 -19 64v89h66v-81q0 -50 41 -50t41 57v83q0 34 -17 63l-106 183q-21 36 -21 75v77q0 80 75 96v75h54v-75q79 -8 79 -91v-76
h-66z" />
    <glyph glyph-name="percent" unicode="%" horiz-adv-x="480" 
d="M139 449v208q0 31 -27 31t-27 -31v-208q2 -31 27 -31q27 0 27 31zM90 -6l250 734h50l-250 -734h-50zM395 65v208q0 31 -27 31t-27 -31v-208q2 -31 27 -31q27 0 27 31zM31 456v194q0 78 81 78t81 -78v-194q0 -78 -81 -78t-81 78zM287 72v194q0 78 81 78t81 -78v-194
q0 -78 -81 -78t-81 78z" />
    <glyph glyph-name="ampersand" unicode="&#x26;" horiz-adv-x="370" 
d="M287 0l-14 36q-39 -42 -101 -42t-94.5 32.5t-32.5 86.5v147q0 39 18 75.5t42 50.5l-22 41q-25 44 -25 116v70q0 115 108 115q56 0 81.5 -23.5t25.5 -81.5v-80q0 -43 -11.5 -69.5t-40.5 -52.5l-44 -41l94 -220h2q4 22 4 43v155h54v-130q0 -84 -20 -133l42 -95h-66zM247 75
l-117 261q-23 -31 -23 -98v-108q0 -86 76 -86q32 0 64 31zM215 533v84q0 61 -48 61q-47 0 -47 -61v-70q0 -42 5 -62t23 -60q67 55 67 108z" />
    <glyph glyph-name="quotesingle" unicode="'" horiz-adv-x="168" 
d="M59 558v164h50v-164h-50z" />
    <glyph glyph-name="parenleft" unicode="(" horiz-adv-x="167" 
d="M98 734h50q-55 -207 -55 -421q0 -245 54 -421h-50q-66 182 -66 421q0 245 67 421z" />
    <glyph glyph-name="parenright" unicode=")" horiz-adv-x="167" 
d="M69 -108h-50q55 207 55 421q0 245 -54 421h50q66 -182 66 -421q0 -245 -67 -421z" />
    <glyph glyph-name="asterisk" unicode="*" 
d="M140 631l34 91l52 -33l-58 -73l92 14v-59l-92 13l58 -73l-52 -31l-34 91h-2l-34 -91l-52 31l58 73l-92 -13v59l92 -14l-58 73l52 33l34 -91h2z" />
    <glyph glyph-name="plus" unicode="+" horiz-adv-x="600" 
d="M275 278v228h50v-228h228v-50h-228v-228h-50v228h-228v50h228z" />
    <glyph glyph-name="comma" unicode="," horiz-adv-x="138" 
d="M-4 -88l36 164h74l-56 -164h-54z" />
    <glyph glyph-name="hyphen" unicode="-" horiz-adv-x="166" 
d="M23 272v56h120v-56h-120z" />
    <glyph glyph-name="period" unicode="." horiz-adv-x="138" 
d="M36 0v76h66v-76h-66z" />
    <glyph glyph-name="slash" unicode="/" 
d="M15 -6l194 734h54l-194 -734h-54z" />
    <glyph glyph-name="zero" unicode="0" horiz-adv-x="276" 
d="M35 101v520q0 107 103 107t103 -107v-520q0 -107 -103 -107t-103 107zM179 94v534q0 50 -41 50t-41 -50v-534q0 -50 41 -50t41 50z" />
    <glyph glyph-name="one" unicode="1" horiz-adv-x="276" 
d="M116 0v647q-30 -26 -66 -45v67q36 17 75 53h57v-722h-66z" />
    <glyph glyph-name="two" unicode="2" horiz-adv-x="276" 
d="M40 536v84q0 108 105 108q49 0 74 -28t25 -79v-70q0 -49 -16 -95l-139 -400h156v-56h-214v67l135 396q16 45 16 99v57q0 59 -40 59t-40 -59v-83h-62z" />
    <glyph glyph-name="three" unicode="3" horiz-adv-x="276" 
d="M101 345v56h37q18 0 29.5 13t11.5 32v187q0 19 -11.5 32t-29.5 13t-29.5 -13t-11.5 -32v-100h-62v86q0 109 103 109t103 -109v-164q0 -37 -11 -52.5t-41 -27.5v-2q28 -5 40 -20t12 -49v-201q0 -109 -103 -109t-103 109v98h62v-112q0 -19 11.5 -32t29.5 -13t29.5 13
t11.5 32v211q0 19 -11.5 32t-29.5 13h-37z" />
    <glyph glyph-name="four" unicode="4" horiz-adv-x="276" 
d="M147 240v406h-2l-76 -406h78zM147 0v190h-128v73l100 459h94v-482h52v-50h-52v-190h-66z" />
    <glyph glyph-name="five" unicode="5" horiz-adv-x="276" 
d="M42 317v405h202v-56h-140v-244h2q21 33 60 33q83 0 83 -93v-259q0 -109 -104 -109q-105 0 -105 109v98h62v-98q0 -30 9.5 -44.5t33.5 -14.5t33 14.5t9 44.5v243q0 59 -41 59q-24 0 -33 -14.5t-9 -44.5v-29h-62z" />
    <glyph glyph-name="six" unicode="6" horiz-adv-x="276" 
d="M179 519v116q0 19 -11 31t-29 12t-30 -12.5t-12 -30.5v-216q33 26 66 26q78 0 78 -87v-255q0 -109 -103 -109t-103 109v516q0 109 103 109t103 -109v-100h-62zM179 87v265q0 18 -12 30.5t-29 12.5t-29 -12.5t-12 -30.5v-265q0 -18 12 -30.5t29 -12.5t29 12.5t12 30.5z
" />
    <glyph glyph-name="seven" unicode="7" horiz-adv-x="276" 
d="M73 0l116 666h-160v56h218v-70l-108 -652h-66z" />
    <glyph glyph-name="eight" unicode="8" horiz-adv-x="276" 
d="M179 89v217q0 19 -11.5 32t-29.5 13t-29.5 -13t-11.5 -32v-217q0 -19 11.5 -32t29.5 -13t29.5 13t11.5 32zM179 446v187q0 19 -11.5 32t-29.5 13t-29.5 -13t-11.5 -32v-187q0 -19 11.5 -32t29.5 -13t29.5 13t11.5 32zM35 103v201q0 34 12 49t40 20v2q-30 12 -41 27.5
t-11 52.5v164q0 109 103 109t103 -109v-164q0 -37 -11 -52.5t-41 -27.5v-2q28 -5 40 -20t12 -49v-201q0 -109 -103 -109t-103 109z" />
    <glyph glyph-name="nine" unicode="9" horiz-adv-x="276" 
d="M179 87v216q-33 -26 -66 -26q-78 0 -78 87v255q0 109 103 109t103 -109v-516q0 -109 -103 -109t-103 109v100h62v-116q0 -19 11 -31t29 -12t30 12.5t12 30.5zM179 370v265q0 18 -12 30.5t-29 12.5t-29 -12.5t-12 -30.5v-265q0 -18 12 -30.5t29 -12.5t29 12.5t12 30.5z
" />
    <glyph glyph-name="colon" unicode=":" horiz-adv-x="138" 
d="M36 0v76h66v-76h-66zM36 469v76h66v-76h-66z" />
    <glyph glyph-name="semicolon" unicode=";" horiz-adv-x="138" 
d="M-4 -88l36 164h74l-56 -164h-54zM36 469v76h66v-76h-66z" />
    <glyph glyph-name="less" unicode="&#x3c;" horiz-adv-x="600" 
d="M47 225v56l506 231v-56l-444 -203l444 -203v-56z" />
    <glyph glyph-name="equal" unicode="=" horiz-adv-x="600" 
d="M47 325v50h506v-50h-506zM47 131v50h506v-50h-506z" />
    <glyph glyph-name="greater" unicode="&#x3e;" horiz-adv-x="600" 
d="M491 253l-444 203v56l506 -231v-56l-506 -231v56z" />
    <glyph glyph-name="question" unicode="?" 
d="M42 535v92q0 45 24 73t74 28q96 0 96 -84v-103q0 -45 -15 -87l-34 -93q-12 -31 -12 -82v-104h-58v106q0 67 16 110l26 69q11 28 11 64v112q0 36 -32 36q-15 0 -24.5 -12.5t-9.5 -30.5v-94h-62zM113 0v76h66v-76h-66z" />
    <glyph glyph-name="at" unicode="@" horiz-adv-x="800" 
d="M237 292q0 -46 27 -74t71 -28q48 0 91.5 42.5t66.5 97.5t23 100q0 43 -24.5 71.5t-67.5 28.5q-78 0 -132.5 -79t-54.5 -159zM546 495l26 65h54l-102 -286q-13 -36 -13 -56q0 -34 34 -34q61 0 116.5 81t55.5 161q0 114 -88.5 186t-210.5 72q-140 0 -237.5 -97t-97.5 -230
q0 -131 99.5 -225t237.5 -94q79 0 154.5 37t122.5 99h53q-47 -82 -137.5 -131t-192.5 -49q-163 0 -275 108t-112 262q0 150 113 257t270 107q148 0 249.5 -87t101.5 -218q0 -110 -75 -196.5t-155 -86.5q-34 0 -54.5 17.5t-21.5 51.5h-2q-67 -69 -141 -69q-61 0 -98 44
t-37 112q0 104 70.5 194t171.5 90q86 0 121 -85z" />
    <glyph glyph-name="A" unicode="A" horiz-adv-x="332" 
d="M251 0l-27 200h-116l-27 -200h-66l106 722h90l106 -722h-66zM217 256l-50 416h-2l-50 -416h102z" />
    <glyph glyph-name="B" unicode="B" horiz-adv-x="333" 
d="M117 403h44q25 0 37 11t12 41v162q0 29 -13.5 39t-42.5 10h-37v-263zM51 0v722h123q53 0 77.5 -16.5t24.5 -66.5v-183q0 -41 -16.5 -58.5t-55.5 -19.5v-2q37 -2 56 -16.5t19 -50.5v-226q0 -50 -25 -66.5t-80 -16.5h-123zM117 56h40q29 0 42.5 10t13.5 39v198q0 44 -52 44
h-44v-291z" />
    <glyph glyph-name="C" unicode="C" 
d="M191 533v93q0 46 -37 46t-37 -46v-530q0 -46 37 -46t37 46v101h66v-103q0 -47 -26 -73.5t-77 -26.5t-77 26.5t-26 73.5v534q0 47 26 73.5t77 26.5t77 -26.5t26 -73.5v-95h-66z" />
    <glyph glyph-name="D" unicode="D" horiz-adv-x="333" 
d="M54 0v722h113q64 0 88 -29.5t24 -87.5v-488q0 -58 -24 -87.5t-88 -29.5h-113zM120 56h35q33 0 45.5 12t12.5 44v498q0 32 -12.5 44t-45.5 12h-35v-610z" />
    <glyph glyph-name="E" unicode="E" horiz-adv-x="259" 
d="M51 0v722h175v-56h-109v-263h104v-56h-104v-291h109v-56h-175z" />
    <glyph glyph-name="F" unicode="F" horiz-adv-x="259" 
d="M51 0v722h175v-56h-109v-263h104v-56h-104v-347h-66z" />
    <glyph glyph-name="G" unicode="G" horiz-adv-x="333" 
d="M163 298v56h119v-338q-55 -22 -104 -22q-66 0 -95 31.5t-29 95.5v493q0 56 29.5 85t84.5 29t84.5 -29t29.5 -85v-81h-66v72q0 67 -48 67t-48 -67v-483q0 -72 52 -72q29 0 44 10v238h-53z" />
    <glyph glyph-name="H" unicode="H" horiz-adv-x="333" 
d="M216 403v319h66v-722h-66v347h-99v-347h-66v722h66v-319h99z" />
    <glyph glyph-name="I" unicode="I" horiz-adv-x="168" 
d="M51 0v722h66v-722h-66z" />
    <glyph glyph-name="J" unicode="J" 
d="M161 93v629h66v-625q0 -103 -103 -103t-103 100v104h66v-104q0 -44 37 -44t37 43z" />
    <glyph glyph-name="K" unicode="K" 
d="M119 412l80 310h66l-95 -330l104 -392h-66l-89 362h-2v-362h-66v722h66v-310h2z" />
    <glyph glyph-name="L" unicode="L" horiz-adv-x="259" 
d="M51 0v722h66v-666h109v-56h-175z" />
    <glyph glyph-name="M" unicode="M" horiz-adv-x="444" 
d="M223 76l74 646h102v-722h-58v666h-2l-76 -666h-82l-76 666h-2v-666h-58v722h102l74 -646h2z" />
    <glyph glyph-name="N" unicode="N" horiz-adv-x="333" 
d="M227 104v618h58v-722h-94l-83 642h-2v-642h-58v722h96l81 -618h2z" />
    <glyph glyph-name="O" unicode="O" horiz-adv-x="334" 
d="M51 116v490q0 122 116 122t116 -122v-490q0 -122 -116 -122t-116 122zM117 604v-486q0 -34 10.5 -51t39.5 -17t39.5 17t10.5 51v486q0 34 -10.5 51t-39.5 17t-39.5 -17t-10.5 -51z" />
    <glyph glyph-name="P" unicode="P" 
d="M51 0v722h105q63 0 86.5 -24t23.5 -86v-177q0 -62 -23.5 -86t-86.5 -24h-39v-325h-66zM117 381h32q25 0 38 9.5t13 35.5v195q0 26 -13 35.5t-38 9.5h-32v-285z" />
    <glyph glyph-name="Q" unicode="Q" horiz-adv-x="334" 
d="M264 50l38 6h20v-56h-113q-5 -2 -19 -4t-24 -2q-115 0 -115 122v490q0 122 115 122q114 0 114 -122v-490q0 -45 -16 -66zM214 118v486q0 34 -10 51t-38 17q-29 0 -39 -17t-10 -51v-486q0 -34 10 -51t39 -17q28 0 38 17t10 51z" />
    <glyph glyph-name="R" unicode="R" horiz-adv-x="333" 
d="M117 403h44q25 0 37 11t12 41v162q0 29 -13.5 39t-42.5 10h-37v-263zM213 0v303q0 44 -52 44h-44v-347h-66v722h123q53 0 77.5 -16.5t24.5 -66.5v-183q0 -41 -16.5 -58.5t-55.5 -19.5v-2q38 -2 56.5 -17t18.5 -50v-309h-66z" />
    <glyph glyph-name="S" unicode="S" 
d="M178 535v88q0 49 -38 49t-38 -49v-76q0 -39 15 -65l105 -180q24 -40 24 -88v-114q0 -51 -28 -78.5t-78 -27.5q-108 0 -108 106v99h66v-95q0 -54 42 -54q40 0 40 54v101q0 35 -19 69l-97 169q-28 48 -28 92v87q0 106 104 106t104 -101v-92h-66z" />
    <glyph glyph-name="T" unicode="T" horiz-adv-x="260" 
d="M97 0v666h-74v56h214v-56h-74v-666h-66z" />
    <glyph glyph-name="U" unicode="U" horiz-adv-x="334" 
d="M217 118v604h66v-625q0 -55 -33.5 -79t-83.5 -24q-48 0 -81.5 24t-33.5 79v625h66v-604q0 -38 12 -53t38 -15t38 15t12 53z" />
    <glyph glyph-name="V" unicode="V" 
d="M140 66l65 656h66l-84 -722h-96l-84 722h66l65 -656h2z" />
    <glyph glyph-name="W" unicode="W" horiz-adv-x="444" 
d="M320 76l50 646h62l-73 -722h-86l-50 642h-2l-50 -642h-86l-73 722h62l54 -646h2l51 646h82l55 -646h2z" />
    <glyph glyph-name="X" unicode="X" 
d="M140 429l57 293h66l-85 -359l92 -363h-66l-64 304h-2l-64 -304h-66l94 363l-87 359h66l57 -293h2z" />
    <glyph glyph-name="Y" unicode="Y" 
d="M140 394l63 328h66l-97 -408v-314h-66v314l-97 408h66l63 -328h2z" />
    <glyph glyph-name="Z" unicode="Z" horiz-adv-x="259" 
d="M24 68l149 598h-140v56h202v-56l-149 -610h148v-56h-210v68z" />
    <glyph glyph-name="bracketleft" unicode="[" horiz-adv-x="167" 
d="M48 -108v842h115v-44h-61v-754h61v-44h-115z" />
    <glyph glyph-name="backslash" unicode="\" 
d="M209 -6l-194 734h54l194 -734h-54z" />
    <glyph glyph-name="bracketright" unicode="]" horiz-adv-x="167" 
d="M65 -64v754h-61v44h115v-842h-115v44h61z" />
    <glyph glyph-name="asciicircum" unicode="^" horiz-adv-x="600" 
d="M499 269l-199 393l-199 -393h-58l230 453h54l230 -453h-58z" />
    <glyph glyph-name="underscore" unicode="_" horiz-adv-x="500" 
d="M500 -125h-500v50h500v-50z" />
    <glyph glyph-name="grave" unicode="`" horiz-adv-x="148" 
d="M0 722h70l44 -108h-50z" />
    <glyph glyph-name="a" unicode="a" 
d="M180 100v187q-31 0 -56.5 -14t-25.5 -45v-124q0 -32 8 -46t31 -14q43 0 43 56zM180 337v118q0 46 -36 46q-24 0 -32 -13t-8 -40v-51h-62v64q0 41 30 65.5t74 24.5q96 0 96 -95v-456h-58v29h-2q-28 -35 -72 -35q-36 0 -55 24t-19 66v148q0 105 144 105z" />
    <glyph glyph-name="b" unicode="b" 
d="M36 0v722h62v-210h2q12 21 30 30t41 9q32 0 51.5 -24t19.5 -61v-366q0 -57 -23 -81.5t-57 -24.5q-17 0 -30.5 6.5t-19.5 13t-16 20.5h-2v-34h-58zM180 102v330q0 63 -37 63q-20 0 -32.5 -17t-12.5 -43v-331q0 -60 46 -60q36 0 36 58z" />
    <glyph glyph-name="c" unicode="c" horiz-adv-x="259" 
d="M161 372v84q0 25 -7 35t-22 10q-34 0 -34 -45v-371q0 -41 31 -41q32 0 32 41v88h62v-87q0 -44 -24 -68t-69 -24q-40 0 -67 21t-27 61v370q0 105 103 105q84 0 84 -88v-91h-62z" />
    <glyph glyph-name="d" unicode="d" 
d="M184 0v34h-2q-10 -14 -16 -20.5t-19.5 -13t-30.5 -6.5q-34 0 -57 24.5t-23 81.5v366q0 37 19.5 61t51.5 24q49 0 71 -39h2v210h62v-722h-58zM180 104v331q0 26 -12.5 43t-32.5 17q-37 0 -37 -63v-330q0 -58 36 -58q46 0 46 60z" />
    <glyph glyph-name="e" unicode="e" 
d="M180 313v133q0 55 -41 55t-41 -55v-133h82zM180 99v77h62v-77q0 -105 -103 -105t-103 105v347q0 105 103 105t103 -105v-189h-144v-158q0 -55 41 -55t41 55z" />
    <glyph glyph-name="f" unicode="f" horiz-adv-x="167" 
d="M46 545v100q0 41 17 62t61 21h28v-50h-13q-31 0 -31 -41v-92h44v-50h-44v-495h-62v495h-31v50h31z" />
    <glyph glyph-name="g" unicode="g" 
d="M184 509v36h58v-542q0 -111 -108 -111q-37 0 -66 22t-29 65v20h62v-16q0 -47 39 -47q19 0 29.5 13.5t10.5 34.5v74h-2q-26 -33 -65 -33q-32 0 -54.5 23t-22.5 71v346q0 37 21 61.5t57 24.5q44 0 68 -42h2zM180 141v310q0 22 -14 33t-33 11q-35 0 -35 -54v-317
q0 -17 9.5 -30t28.5 -13q44 0 44 60z" />
    <glyph glyph-name="h" unicode="h" 
d="M36 0v722h62v-214h2q10 18 28.5 30.5t41.5 12.5q35 0 53.5 -23.5t18.5 -58.5v-469h-62v445q0 50 -39 50q-20 0 -31.5 -15.5t-11.5 -34.5v-445h-62z" />
    <glyph glyph-name="i" unicode="i" horiz-adv-x="148" 
d="M43 0v545h62v-545h-62zM41 646v76h66v-76h-66z" />
    <glyph glyph-name="j" unicode="j" horiz-adv-x="148" 
d="M41 -19v564h62v-584q0 -36 -22 -52.5t-49 -16.5q-19 0 -31 5v47q10 -2 15 -2q25 0 25 39zM39 646v76h66v-76h-66z" />
    <glyph glyph-name="k" unicode="k" 
d="M36 0v722h62v-397h2l90 220h66l-103 -231l111 -314h-66l-98 293h-2v-293h-62z" />
    <glyph glyph-name="l" unicode="l" horiz-adv-x="148" 
d="M43 0v722h62v-722h-62z" />
    <glyph glyph-name="m" unicode="m" horiz-adv-x="406" 
d="M39 0v545h58v-37h2q29 43 72 43q38 0 58 -34q28 34 64 34t55 -23.5t19 -58.5v-469h-62v448q0 47 -31 47q-18 0 -29 -14.5t-11 -35.5v-445h-62v448q0 47 -31 47q-18 0 -29 -14.5t-11 -35.5v-445h-62z" />
    <glyph glyph-name="n" unicode="n" 
d="M36 0v545h58v-37h2q26 43 72 43q36 0 55 -23.5t19 -58.5v-469h-62v445q0 50 -39 50q-20 0 -31.5 -15.5t-11.5 -34.5v-445h-62z" />
    <glyph glyph-name="o" unicode="o" 
d="M180 99v347q0 55 -41 55t-41 -55v-347q0 -55 41 -55t41 55zM36 99v347q0 105 103 105t103 -105v-347q0 -105 -103 -105t-103 105z" />
    <glyph glyph-name="p" unicode="p" 
d="M36 -108v653h58v-34h2q16 40 66 40q34 0 57 -24.5t23 -81.5v-366q0 -37 -19.5 -61t-51.5 -24q-50 0 -71 40h-2v-142h-62zM180 113v330q0 58 -36 58q-46 0 -46 -60v-331q0 -26 12.5 -43t32.5 -17q37 0 37 63z" />
    <glyph glyph-name="q" unicode="q" 
d="M180 -108v142h-2q-21 -40 -71 -40q-32 0 -51.5 24t-19.5 61v366q0 57 23 81.5t57 24.5q50 0 66 -40h2v34h58v-653h-62zM180 110v331q0 60 -46 60q-36 0 -36 -58v-330q0 -63 37 -63q20 0 32.5 17t12.5 43z" />
    <glyph glyph-name="r" unicode="r" horiz-adv-x="204" 
d="M36 0v545h58v-38h2q29 44 83 44v-62q-45 0 -63 -18.5t-18 -61.5v-409h-62z" />
    <glyph glyph-name="s" unicode="s" horiz-adv-x="259" 
d="M163 383v81q0 37 -32 37t-32 -39v-61q0 -21 23 -54l78 -109q22 -31 22 -60v-92q0 -44 -24 -68t-69 -24q-41 0 -66.5 21t-25.5 64v95h62v-84q0 -46 31 -46q30 0 30 47v66q0 29 -23 60l-71 97q-29 39 -29 73v70q0 44 27 69t70 25q45 0 66 -24t21 -54v-90h-58z" />
    <glyph glyph-name="t" unicode="t" horiz-adv-x="167" 
d="M46 545v73l62 24v-97h44v-50h-44v-414q0 -31 31 -31h13v-50h-30q-76 0 -76 67v428h-31v50h31z" />
    <glyph glyph-name="u" unicode="u" 
d="M242 545v-545h-58v37h-2q-26 -43 -72 -43q-36 0 -55 23.5t-19 58.5v469h62v-445q0 -50 39 -50q20 0 31.5 15.5t11.5 34.5v445h62z" />
    <glyph glyph-name="v" unicode="v" horiz-adv-x="258" 
d="M83 0l-65 545h58l52 -461h2l52 461h58l-65 -545h-92z" />
    <glyph glyph-name="w" unicode="w" horiz-adv-x="406" 
d="M76 0l-58 545h55l46 -461h2l40 461h84l40 -461h2l46 461h55l-58 -545h-85l-41 473h-2l-41 -473h-85z" />
    <glyph glyph-name="x" unicode="x" horiz-adv-x="258" 
d="M18 0l82 281l-72 264h60l40 -162h2l40 162h60l-72 -264l82 -281h-60l-50 192h-2l-50 -192h-60z" />
    <glyph glyph-name="y" unicode="y" horiz-adv-x="259" 
d="M241 545l-104 -653h-62l22 108l-79 545h62l44 -367h2l53 367h62z" />
    <glyph glyph-name="z" unicode="z" horiz-adv-x="204" 
d="M18 72l104 423h-98v50h160v-54l-108 -441h110v-50h-168v72z" />
    <glyph glyph-name="braceleft" unicode="{" horiz-adv-x="167" 
d="M15 293v40q23 0 31 16t8 48v263q0 74 60 74h38v-40h-18q-26 0 -26 -33v-264q0 -65 -39 -83v-2q39 -18 39 -83v-264q0 -33 26 -33h18v-40h-38q-60 0 -60 74v263q0 32 -8 48t-31 16z" />
    <glyph glyph-name="bar" unicode="|" horiz-adv-x="222" 
d="M86 -6v734h50v-734h-50z" />
    <glyph glyph-name="braceright" unicode="}" horiz-adv-x="167" 
d="M152 333v-40q-23 0 -31 -16t-8 -48v-263q0 -74 -60 -74h-38v40h18q26 0 26 33v264q0 65 39 83v2q-39 18 -39 83v264q0 33 -26 33h-18v40h38q60 0 60 -74v-263q0 -32 8 -48t31 -16z" />
    <glyph glyph-name="asciitilde" unicode="~" horiz-adv-x="600" 
d="M105 190l-36 36q40 86 125 86q41 0 115 -34q76 -34 98 -34q42 0 88 72l36 -36q-40 -86 -125 -86q-41 0 -115 34q-76 34 -98 34q-42 0 -88 -72z" />
    <glyph glyph-name="uni00A0" unicode="&#xa0;" horiz-adv-x="138" 
 />
    <glyph glyph-name="exclamdown" unicode="&#xa1;" horiz-adv-x="258" 
d="M92 -102l8 547h58l8 -547h-74zM96 544v76h66v-76h-66z" />
    <glyph glyph-name="cent" unicode="&#xa2;" horiz-adv-x="276" 
d="M115 -54v81q-31 5 -50 24q-21 23 -21 55v370q0 86 71 101v82h50v-79q31 -4 50 -26q17 -23 17 -61v-91h-62v84q0 45 -32 45t-32 -45v-371q0 -41 32 -41t32 41v88h62v-87q0 -77 -67 -89v-81h-50z" />
    <glyph glyph-name="sterling" unicode="&#xa3;" horiz-adv-x="276" 
d="M219 575v67q0 18 -10 27t-25 9q-35 0 -35 -45v-216h96v-56h-96v-305h124v-56h-245v56h55v305h-57v56h57v198q0 52 25 82.5t74 30.5q99 0 99 -93v-60h-62z" />
    <glyph glyph-name="currency" unicode="&#xa4;" horiz-adv-x="276" 
d="M207 361q0 29 -20.5 49t-48.5 20t-48.5 -20t-20.5 -49t20.5 -49t48.5 -20t48.5 20t20.5 49zM207 458l27 27l28 -28l-28 -28q23 -29 23 -68t-23 -68l28 -28l-28 -28l-27 27q-30 -22 -69 -22t-69 22l-27 -27l-28 28l28 28q-23 29 -23 68t23 68l-28 28l28 28l27 -27
q30 22 69 22t69 -22z" />
    <glyph glyph-name="yen" unicode="&#xa5;" horiz-adv-x="276" 
d="M105 0v211h-90v50h90v53l-5 21h-85v50h73l-80 337h66l63 -328h2l63 328h66l-80 -337h73v-50h-85l-5 -21v-53h90v-50h-90v-211h-66z" />
    <glyph glyph-name="brokenbar" unicode="&#xa6;" horiz-adv-x="222" 
d="M86 -6v275h50v-275h-50zM86 453v275h50v-275h-50z" />
    <glyph glyph-name="section" unicode="&#xa7;" 
d="M180 576v48q0 54 -38 54q-40 0 -40 -48q0 -40 20 -63l99 -114q21 -24 21 -56v-65q0 -22 -10.5 -40.5t-47.5 -50.5q37 -35 49 -54.5t12 -45.5v-49q0 -98 -106 -98q-53 0 -79.5 25t-26.5 70v70h62v-52q0 -25 11 -44t32 -19q18 0 29.5 14.5t11.5 36.5v34q0 27 -46 72l-57 55
q-15 14 -27 36.5t-12 41.5v55q0 51 65 108q-62 60 -62 108v40q0 37 26 60t75 23q101 0 101 -93v-59h-62zM180 350v32q0 20 -8.5 37t-37.5 45q-35 -39 -35 -76v-33q0 -39 50 -82q31 37 31 77z" />
    <glyph glyph-name="dieresis" unicode="&#xa8;" horiz-adv-x="148" 
d="M-7 628v76h62v-76h-62zM93 628v76h62v-76h-62z" />
    <glyph glyph-name="copyright" unicode="&#xa9;" horiz-adv-x="800" 
d="M543 286h54q-17 -71 -67 -114.5t-118 -43.5q-100 0 -161.5 66.5t-61.5 167.5q0 102 59 166.5t161 64.5q73 0 125.5 -40.5t62.5 -112.5h-54q-9 45 -45 74t-88 29q-78 0 -122.5 -51.5t-44.5 -128.5q0 -75 46.5 -130t122.5 -55q52 0 87 30.5t44 77.5zM33 361
q0 152 107.5 259.5t259.5 107.5t259.5 -107.5t107.5 -259.5t-107.5 -259.5t-259.5 -107.5t-259.5 107.5t-107.5 259.5zM717 361q0 132 -92.5 224.5t-224.5 92.5t-224.5 -92.5t-92.5 -224.5t92.5 -224.5t224.5 -92.5t224.5 92.5t92.5 224.5z" />
    <glyph glyph-name="ordfeminine" unicode="&#xaa;" horiz-adv-x="180" 
d="M111 459v109q-21 -2 -31.5 -10.5t-10.5 -27.5v-69q0 -36 19 -36q23 0 23 34zM111 600v68q0 28 -18 28q-21 0 -21 -32v-29h-46v39q0 24 19.5 39t48.5 15q63 0 63 -57v-274h-37v17h-2q-19 -21 -47 -21q-23 0 -35.5 14.5t-12.5 39.5v78q0 41 19 56.5t69 18.5z" />
    <glyph glyph-name="guillemotleft" unicode="&#xab;" 
d="M207 88l-61 214l57 210h54l-49 -210l49 -214h-50zM82 88l-61 214l57 210h54l-49 -210l49 -214h-50z" />
    <glyph glyph-name="logicalnot" unicode="&#xac;" horiz-adv-x="600" 
d="M503 108v217h-456v50h506v-267h-50z" />
    <glyph glyph-name="uni00AD" unicode="&#xad;" horiz-adv-x="166" 
d="M23 272v56h120v-56h-120z" />
    <glyph glyph-name="registered" unicode="&#xae;" horiz-adv-x="800" 
d="M33 361q0 152 107.5 259.5t259.5 107.5t259.5 -107.5t107.5 -259.5t-107.5 -259.5t-259.5 -107.5t-259.5 107.5t-107.5 259.5zM717 361q0 132 -92.5 224.5t-224.5 92.5t-224.5 -92.5t-92.5 -224.5t92.5 -224.5t224.5 -92.5t224.5 92.5t92.5 224.5zM530 132l-124 194h-93
v-194h-50v436h167q142 0 142 -121q0 -102 -108 -121l128 -194h-62zM313 370h103q51 0 78.5 17.5t27.5 60.5q0 76 -104 76h-105v-154z" />
    <glyph glyph-name="macron" unicode="&#xaf;" horiz-adv-x="148" 
d="M-15 645v44h178v-44h-178z" />
    <glyph glyph-name="degree" unicode="&#xb0;" horiz-adv-x="400" 
d="M82 610q0 49 34.5 83.5t83.5 34.5t83.5 -34.5t34.5 -83.5t-34.5 -83.5t-83.5 -34.5t-83.5 34.5t-34.5 83.5zM126 610q0 -31 21.5 -52.5t52.5 -21.5t52.5 21.5t21.5 52.5t-21.5 52.5t-52.5 21.5t-52.5 -21.5t-21.5 -52.5z" />
    <glyph glyph-name="plusminus" unicode="&#xb1;" horiz-adv-x="600" 
d="M275 323v183h50v-183h228v-50h-228v-183h-50v183h-228v50h228zM47 0v50h506v-50h-506z" />
    <glyph glyph-name="twosuperior" unicode="&#xb2;" horiz-adv-x="181" 
d="M21 291v40l77 214q15 41 15 83v28q0 36 -20 36t-20 -36v-43h-46v50q0 65 68 65q64 0 64 -64v-42q0 -39 -19 -92l-72 -199h92v-40h-139z" />
    <glyph glyph-name="threesuperior" unicode="&#xb3;" horiz-adv-x="181" 
d="M65 496v40h14q33 0 33 31v89q0 36 -21 36q-22 0 -22 -36v-45h-46v51q0 66 68 66q67 0 67 -66v-112q0 -19 -7.5 -26t-23.5 -8v-2q16 0 23.5 -7t7.5 -26v-128q0 -66 -67 -66q-68 0 -68 66v59h46v-53q0 -36 22 -36q21 0 21 36v106q0 31 -33 31h-14z" />
    <glyph glyph-name="acute" unicode="&#xb4;" horiz-adv-x="148" 
d="M78 722h70l-64 -108h-50z" />
    <glyph glyph-name="mu" unicode="&#xb5;" 
d="M242 545v-545h-58v37h-2q-8 -17 -23.5 -30t-31.5 -13q-20 0 -27 20h-2v-122h-62v653h62v-445q0 -50 39 -50q20 0 31.5 15.5t11.5 34.5v445h62z" />
    <glyph glyph-name="paragraph" unicode="&#xb6;" horiz-adv-x="400" 
d="M267 0v672h-56v-672h-54v369q-65 9 -94 58t-29 119q0 81 38 128.5t118 47.5h131v-722h-54z" />
    <glyph glyph-name="periodcentered" unicode="&#xb7;" horiz-adv-x="138" 
d="M13 319q0 23 16.5 39.5t39.5 16.5t39.5 -16.5t16.5 -39.5t-16.5 -39.5t-39.5 -16.5t-39.5 16.5t-16.5 39.5z" />
    <glyph glyph-name="cedilla" unicode="&#xb8;" horiz-adv-x="148" 
d="M59 0h20l-8 -32q12 2 26 2q17 0 29 -11.5t12 -26.5q0 -16 -17 -31t-57 -15q-19 0 -36 4l5 23q11 -3 24 -3q35 0 35 21q0 9 -7.5 14t-13.5 5q-15 0 -24 -3z" />
    <glyph glyph-name="onesuperior" unicode="&#xb9;" horiz-adv-x="181" 
d="M68 291v383h-2q-5 -9 -33 -26v44q21 10 48 32h37v-433h-50z" />
    <glyph glyph-name="ordmasculine" unicode="&#xba;" horiz-adv-x="180" 
d="M67 663v-205q0 -33 23 -33t23 33v205q0 33 -23 33t-23 -33zM159 665v-209q0 -63 -69 -63t-69 63v209q0 63 69 63t69 -63z" />
    <glyph glyph-name="guillemotright" unicode="&#xbb;" 
d="M195 298l-49 214h50l61 -214l-57 -210h-54zM70 298l-49 214h50l61 -214l-57 -210h-54z" />
    <glyph glyph-name="onequarter" unicode="&#xbc;" horiz-adv-x="417" 
d="M316 146v231h-2l-46 -231h48zM316 0v110h-82v48l66 275h62v-287h32v-36h-32v-110h-46zM60 0l194 722h50l-194 -722h-50zM58 291v383h-2q-5 -9 -33 -26v44q21 10 48 32h37v-433h-50z" />
    <glyph glyph-name="onehalf" unicode="&#xbd;" horiz-adv-x="417" 
d="M60 0l194 722h50l-194 -722h-50zM58 291v383h-2q-5 -9 -33 -26v44q21 10 48 32h37v-433h-50zM255 0v40l77 214q15 41 15 83v28q0 36 -20 36t-20 -36v-43h-46v50q0 65 68 65q64 0 64 -64v-42q0 -39 -19 -92l-72 -199h92v-40h-139z" />
    <glyph glyph-name="threequarters" unicode="&#xbe;" horiz-adv-x="417" 
d="M316 146v231h-2l-46 -231h48zM316 0v110h-82v48l66 275h62v-287h32v-36h-32v-110h-46zM89 0l194 722h50l-194 -722h-50zM65 496v40h14q33 0 33 31v89q0 36 -21 36q-22 0 -22 -36v-45h-46v51q0 66 68 66q67 0 67 -66v-112q0 -19 -7.5 -26t-23.5 -8v-2q16 0 23.5 -7
t7.5 -26v-128q0 -66 -67 -66q-68 0 -68 66v59h46v-53q0 -36 22 -36q21 0 21 36v106q0 31 -33 31h-14z" />
    <glyph glyph-name="questiondown" unicode="&#xbf;" 
d="M174 -9v94h62v-92q0 -45 -24 -73t-74 -28q-96 0 -96 84v103q0 45 15 87l34 93q12 31 12 82v104h58v-106q0 -67 -16 -110l-26 -69q-11 -28 -11 -64v-112q0 -36 32 -36q15 0 24.5 12.5t9.5 30.5zM99 544v76h66v-76h-66z" />
    <glyph glyph-name="Agrave" unicode="&#xc0;" horiz-adv-x="332" 
d="M251 0l-27 200h-116l-27 -200h-66l106 722h90l106 -722h-66zM217 256l-50 416h-2l-50 -416h102zM98 861h70l44 -108h-50z" />
    <glyph glyph-name="Aacute" unicode="&#xc1;" horiz-adv-x="332" 
d="M251 0l-27 200h-116l-27 -200h-66l106 722h90l106 -722h-66zM217 256l-50 416h-2l-50 -416h102zM176 861h70l-64 -108h-50z" />
    <glyph glyph-name="Acircumflex" unicode="&#xc2;" horiz-adv-x="332" 
d="M251 0l-27 200h-116l-27 -200h-66l106 722h90l106 -722h-66zM217 256l-50 416h-2l-50 -416h102zM201 753l-29 72l-29 -72h-58l44 108h86l44 -108h-58z" />
    <glyph glyph-name="Atilde" unicode="&#xc3;" horiz-adv-x="332" 
d="M251 0l-27 200h-116l-27 -200h-66l106 722h90l106 -722h-66zM217 256l-50 416h-2l-50 -416h102zM116 771h-34q0 28 14 47.5t45 19.5q15 0 35.5 -9t26.5 -9q8 0 16 6.5t9 16.5h34q0 -28 -14 -47.5t-45 -19.5q-15 0 -35.5 9t-26.5 9q-8 0 -16 -6.5t-9 -16.5z" />
    <glyph glyph-name="Adieresis" unicode="&#xc4;" horiz-adv-x="332" 
d="M251 0l-27 200h-116l-27 -200h-66l106 722h90l106 -722h-66zM217 256l-50 416h-2l-50 -416h102zM91 767v76h62v-76h-62zM191 767v76h62v-76h-62z" />
    <glyph glyph-name="Aring" unicode="&#xc5;" horiz-adv-x="332" 
d="M251 0l-27 200h-116l-27 -200h-66l106 722h90l106 -722h-66zM217 256l-50 416h-2l-50 -416h102zM105 808q0 28 19.5 47.5t47.5 19.5t47.5 -19.5t19.5 -47.5t-19.5 -47.5t-47.5 -19.5t-47.5 19.5t-19.5 47.5zM205 808q0 14 -9.5 23.5t-23.5 9.5t-23.5 -9.5t-9.5 -23.5
t9.5 -23.5t23.5 -9.5t23.5 9.5t9.5 23.5z" />
    <glyph glyph-name="AE" unicode="&#xc6;" horiz-adv-x="407" 
d="M237 0l-14 200h-112l-34 -200h-62l125 722h244v-56h-127l19 -263h103v-56h-100l21 -291h84v-56h-147zM220 256l-27 416h-2l-71 -416h100z" />
    <glyph glyph-name="Ccedilla" unicode="&#xc7;" 
d="M257 197v-103q0 -47 -26 -73.5t-77 -26.5l-7 -26q12 2 26 2q17 0 29 -11.5t12 -26.5q0 -16 -17 -31t-57 -15q-19 0 -36 4l5 23q10 -3 24 -3q35 0 35 21q0 9 -7.5 14t-13.5 5q-15 0 -24 -3l11 49q-83 9 -83 98v534q0 47 26 73.5t77 26.5t77 -26.5t26 -73.5v-95h-66v93
q0 46 -37 46t-37 -46v-530q0 -46 37 -46t37 46v101h66z" />
    <glyph glyph-name="Egrave" unicode="&#xc8;" horiz-adv-x="259" 
d="M51 0v722h175v-56h-109v-263h104v-56h-104v-291h109v-56h-175zM68 861h70l44 -108h-50z" />
    <glyph glyph-name="Eacute" unicode="&#xc9;" horiz-adv-x="259" 
d="M51 0v722h175v-56h-109v-263h104v-56h-104v-291h109v-56h-175zM146 861h70l-64 -108h-50z" />
    <glyph glyph-name="Ecircumflex" unicode="&#xca;" horiz-adv-x="259" 
d="M51 0v722h175v-56h-109v-263h104v-56h-104v-291h109v-56h-175zM171 753l-29 72l-29 -72h-58l44 108h86l44 -108h-58z" />
    <glyph glyph-name="Edieresis" unicode="&#xcb;" horiz-adv-x="259" 
d="M51 0v722h175v-56h-109v-263h104v-56h-104v-291h109v-56h-175zM61 767v76h62v-76h-62zM161 767v76h62v-76h-62z" />
    <glyph glyph-name="Igrave" unicode="&#xcc;" horiz-adv-x="168" 
d="M51 0v722h66v-722h-66zM10 861h70l44 -108h-50z" />
    <glyph glyph-name="Iacute" unicode="&#xcd;" horiz-adv-x="168" 
d="M51 0v722h66v-722h-66zM88 861h70l-64 -108h-50z" />
    <glyph glyph-name="Icircumflex" unicode="&#xce;" horiz-adv-x="168" 
d="M51 0v722h66v-722h-66zM113 753l-29 72l-29 -72h-58l44 108h86l44 -108h-58z" />
    <glyph glyph-name="Idieresis" unicode="&#xcf;" horiz-adv-x="168" 
d="M51 0v722h66v-722h-66zM3 767v76h62v-76h-62zM103 767v76h62v-76h-62z" />
    <glyph glyph-name="Eth" unicode="&#xd0;" horiz-adv-x="333" 
d="M57 403v319h113q64 0 88 -29.5t24 -87.5v-488q0 -58 -24 -87.5t-88 -29.5h-113v347h-32v56h32zM123 403h40v-56h-40v-291h35q33 0 45.5 12t12.5 44v498q0 32 -12.5 44t-45.5 12h-35v-263z" />
    <glyph glyph-name="Ntilde" unicode="&#xd1;" horiz-adv-x="333" 
d="M227 104v618h58v-722h-94l-83 642h-2v-642h-58v722h96l81 -618h2zM111 771h-34q0 28 14 47.5t45 19.5q15 0 35.5 -9t26.5 -9q8 0 16 6.5t9 16.5h34q0 -28 -14 -47.5t-45 -19.5q-15 0 -35.5 9t-26.5 9q-8 0 -16 -6.5t-9 -16.5z" />
    <glyph glyph-name="Ograve" unicode="&#xd2;" horiz-adv-x="334" 
d="M51 116v490q0 122 116 122t116 -122v-490q0 -122 -116 -122t-116 122zM117 604v-486q0 -34 10.5 -51t39.5 -17t39.5 17t10.5 51v486q0 34 -10.5 51t-39.5 17t-39.5 -17t-10.5 -51zM93 861h70l44 -108h-50z" />
    <glyph glyph-name="Oacute" unicode="&#xd3;" horiz-adv-x="334" 
d="M51 116v490q0 122 116 122t116 -122v-490q0 -122 -116 -122t-116 122zM117 604v-486q0 -34 10.5 -51t39.5 -17t39.5 17t10.5 51v486q0 34 -10.5 51t-39.5 17t-39.5 -17t-10.5 -51zM171 861h70l-64 -108h-50z" />
    <glyph glyph-name="Ocircumflex" unicode="&#xd4;" horiz-adv-x="334" 
d="M51 116v490q0 122 116 122t116 -122v-490q0 -122 -116 -122t-116 122zM117 604v-486q0 -34 10.5 -51t39.5 -17t39.5 17t10.5 51v486q0 34 -10.5 51t-39.5 17t-39.5 -17t-10.5 -51zM196 753l-29 72l-29 -72h-58l44 108h86l44 -108h-58z" />
    <glyph glyph-name="Otilde" unicode="&#xd5;" horiz-adv-x="334" 
d="M51 116v490q0 122 116 122t116 -122v-490q0 -122 -116 -122t-116 122zM117 604v-486q0 -34 10.5 -51t39.5 -17t39.5 17t10.5 51v486q0 34 -10.5 51t-39.5 17t-39.5 -17t-10.5 -51zM111 771h-34q0 28 14 47.5t45 19.5q15 0 35.5 -9t26.5 -9q8 0 16 6.5t9 16.5h34
q0 -28 -14 -47.5t-45 -19.5q-15 0 -35.5 9t-26.5 9q-8 0 -16 -6.5t-9 -16.5z" />
    <glyph glyph-name="Odieresis" unicode="&#xd6;" horiz-adv-x="334" 
d="M51 116v490q0 122 116 122t116 -122v-490q0 -122 -116 -122t-116 122zM117 604v-486q0 -34 10.5 -51t39.5 -17t39.5 17t10.5 51v486q0 34 -10.5 51t-39.5 17t-39.5 -17t-10.5 -51zM86 767v76h62v-76h-62zM186 767v76h62v-76h-62z" />
    <glyph glyph-name="multiply" unicode="&#xd7;" horiz-adv-x="600" 
d="M299 288l191 191l36 -36l-191 -190l191 -190l-36 -36l-191 191l-189 -191l-36 36l190 190l-190 190l36 36z" />
    <glyph glyph-name="Oslash" unicode="&#xd8;" horiz-adv-x="334" 
d="M47 -29l19 72q-15 29 -15 73v490q0 122 116 122q48 0 75 -19l14 52l31 -10l-19 -73q15 -27 15 -72v-490q0 -122 -116 -122q-49 0 -75 20l-14 -53zM119 235l98 377q-1 30 -12 45t-38 15q-29 0 -39.5 -17t-10.5 -51v-369h2zM215 486l-98 -381q0 -55 50 -55q29 0 39.5 17
t10.5 51v368h-2z" />
    <glyph glyph-name="Ugrave" unicode="&#xd9;" horiz-adv-x="334" 
d="M217 118v604h66v-625q0 -55 -33.5 -79t-83.5 -24q-48 0 -81.5 24t-33.5 79v625h66v-604q0 -38 12 -53t38 -15t38 15t12 53zM93 861h70l44 -108h-50z" />
    <glyph glyph-name="Uacute" unicode="&#xda;" horiz-adv-x="334" 
d="M217 118v604h66v-625q0 -55 -33.5 -79t-83.5 -24q-48 0 -81.5 24t-33.5 79v625h66v-604q0 -38 12 -53t38 -15t38 15t12 53zM171 861h70l-64 -108h-50z" />
    <glyph glyph-name="Ucircumflex" unicode="&#xdb;" horiz-adv-x="334" 
d="M217 118v604h66v-625q0 -55 -33.5 -79t-83.5 -24q-48 0 -81.5 24t-33.5 79v625h66v-604q0 -38 12 -53t38 -15t38 15t12 53zM196 753l-29 72l-29 -72h-58l44 108h86l44 -108h-58z" />
    <glyph glyph-name="Udieresis" unicode="&#xdc;" horiz-adv-x="334" 
d="M217 118v604h66v-625q0 -55 -33.5 -79t-83.5 -24q-48 0 -81.5 24t-33.5 79v625h66v-604q0 -38 12 -53t38 -15t38 15t12 53zM86 767v76h62v-76h-62zM186 767v76h62v-76h-62z" />
    <glyph glyph-name="Yacute" unicode="&#xdd;" 
d="M140 394l63 328h66l-97 -408v-314h-66v314l-97 408h66l63 -328h2zM143 861h70l-64 -108h-50z" />
    <glyph glyph-name="Thorn" unicode="&#xde;" 
d="M51 0v722h66v-124h39q63 0 86.5 -24t23.5 -86v-177q0 -62 -23.5 -86t-86.5 -24h-39v-201h-66zM117 257h32q25 0 38 9.5t13 35.5v195q0 26 -13 35.5t-38 9.5h-32v-285z" />
    <glyph glyph-name="germandbls" unicode="&#xdf;" horiz-adv-x="370" 
d="M36 0v580q0 74 29 111t100 37q55 0 83.5 -30t28.5 -79v-119q-67 -27 -67 -63q0 -19 22 -55l78 -125q24 -37 24 -87v-83q0 -93 -101 -93q-90 0 -90 92v76h62v-76q0 -42 31 -42q36 0 36 40v86q0 27 -13 50l-88 145q-23 37 -23 76q0 50 67 86v90q0 61 -55 61q-62 0 -62 -75
v-603h-62z" />
    <glyph glyph-name="agrave" unicode="&#xe0;" 
d="M180 100v187q-31 0 -56.5 -14t-25.5 -45v-124q0 -32 8 -46t31 -14q43 0 43 56zM180 337v118q0 46 -36 46q-24 0 -32 -13t-8 -40v-51h-62v64q0 41 30 65.5t74 24.5q96 0 96 -95v-456h-58v29h-2q-28 -35 -72 -35q-36 0 -55 24t-19 66v148q0 105 144 105zM71 722h70l44 -108
h-50z" />
    <glyph glyph-name="aacute" unicode="&#xe1;" 
d="M180 100v187q-31 0 -56.5 -14t-25.5 -45v-124q0 -32 8 -46t31 -14q43 0 43 56zM180 337v118q0 46 -36 46q-24 0 -32 -13t-8 -40v-51h-62v64q0 41 30 65.5t74 24.5q96 0 96 -95v-456h-58v29h-2q-28 -35 -72 -35q-36 0 -55 24t-19 66v148q0 105 144 105zM149 722h70
l-64 -108h-50z" />
    <glyph glyph-name="acircumflex" unicode="&#xe2;" 
d="M180 100v187q-31 0 -56.5 -14t-25.5 -45v-124q0 -32 8 -46t31 -14q43 0 43 56zM180 337v118q0 46 -36 46q-24 0 -32 -13t-8 -40v-51h-62v64q0 41 30 65.5t74 24.5q96 0 96 -95v-456h-58v29h-2q-28 -35 -72 -35q-36 0 -55 24t-19 66v148q0 105 144 105zM174 614l-29 72
l-29 -72h-58l44 108h86l44 -108h-58z" />
    <glyph glyph-name="atilde" unicode="&#xe3;" 
d="M180 100v187q-31 0 -56.5 -14t-25.5 -45v-124q0 -32 8 -46t31 -14q43 0 43 56zM180 337v118q0 46 -36 46q-24 0 -32 -13t-8 -40v-51h-62v64q0 41 30 65.5t74 24.5q96 0 96 -95v-456h-58v29h-2q-28 -35 -72 -35q-36 0 -55 24t-19 66v148q0 105 144 105zM89 632h-34
q0 28 14 47.5t45 19.5q15 0 35.5 -9t26.5 -9q8 0 16 6.5t9 16.5h34q0 -28 -14 -47.5t-45 -19.5q-15 0 -35.5 9t-26.5 9q-8 0 -16 -6.5t-9 -16.5z" />
    <glyph glyph-name="adieresis" unicode="&#xe4;" 
d="M180 100v187q-31 0 -56.5 -14t-25.5 -45v-124q0 -32 8 -46t31 -14q43 0 43 56zM180 337v118q0 46 -36 46q-24 0 -32 -13t-8 -40v-51h-62v64q0 41 30 65.5t74 24.5q96 0 96 -95v-456h-58v29h-2q-28 -35 -72 -35q-36 0 -55 24t-19 66v148q0 105 144 105zM64 628v76h62v-76
h-62zM164 628v76h62v-76h-62z" />
    <glyph glyph-name="aring" unicode="&#xe5;" 
d="M180 100v187q-31 0 -56.5 -14t-25.5 -45v-124q0 -32 8 -46t31 -14q43 0 43 56zM180 337v118q0 46 -36 46q-24 0 -32 -13t-8 -40v-51h-62v64q0 41 30 65.5t74 24.5q96 0 96 -95v-456h-58v29h-2q-28 -35 -72 -35q-36 0 -55 24t-19 66v148q0 105 144 105zM78 663
q0 28 19.5 47.5t47.5 19.5t47.5 -19.5t19.5 -47.5t-19.5 -47.5t-47.5 -19.5t-47.5 19.5t-19.5 47.5zM178 663q0 13 -10 23t-23 10t-23 -10t-10 -23t10 -23t23 -10t23 10t10 23z" />
    <glyph glyph-name="ae" unicode="&#xe6;" horiz-adv-x="407" 
d="M173 313v148q0 17 -10 28.5t-26 11.5t-26 -11.5t-10 -28.5v-75h-62v73q0 44 24 68t67 24q47 0 76 -39q31 39 78 39q39 0 62 -22t23 -83v-189h-134v-158q0 -55 36 -55t36 55v77h62v-77q0 -57 -28 -81t-70 -24q-43 0 -65 40q-17 -23 -32 -31.5t-43 -8.5q-93 0 -93 92v121
q0 53 30.5 79.5t83.5 26.5h21zM173 84v173q-42 0 -57.5 -10.5t-15.5 -43.5v-119q0 -40 37 -40q16 0 26 10.5t10 29.5zM307 313v133q0 55 -36 55t-36 -55v-133h72z" />
    <glyph glyph-name="ccedilla" unicode="&#xe7;" horiz-adv-x="259" 
d="M223 173v-87q0 -44 -24 -68t-69 -24l-7 -26q12 2 26 2q17 0 29 -11.5t12 -26.5q0 -16 -17 -31t-57 -15q-19 0 -36 4l5 23q11 -3 24 -3q35 0 35 21q0 9 -7.5 14t-13.5 5q-15 0 -24 -3l11 48q-74 13 -74 81v370q0 105 103 105q84 0 84 -88v-91h-62v84q0 25 -7 35t-22 10
q-34 0 -34 -45v-371q0 -41 31 -41q32 0 32 41v88h62z" />
    <glyph glyph-name="egrave" unicode="&#xe8;" 
d="M180 313v133q0 55 -41 55t-41 -55v-133h82zM180 99v77h62v-77q0 -105 -103 -105t-103 105v347q0 105 103 105t103 -105v-189h-144v-158q0 -55 41 -55t41 55zM65 722h70l44 -108h-50z" />
    <glyph glyph-name="eacute" unicode="&#xe9;" 
d="M180 313v133q0 55 -41 55t-41 -55v-133h82zM180 99v77h62v-77q0 -105 -103 -105t-103 105v347q0 105 103 105t103 -105v-189h-144v-158q0 -55 41 -55t41 55zM143 722h70l-64 -108h-50z" />
    <glyph glyph-name="ecircumflex" unicode="&#xea;" 
d="M180 313v133q0 55 -41 55t-41 -55v-133h82zM180 99v77h62v-77q0 -105 -103 -105t-103 105v347q0 105 103 105t103 -105v-189h-144v-158q0 -55 41 -55t41 55zM168 614l-29 72l-29 -72h-58l44 108h86l44 -108h-58z" />
    <glyph glyph-name="edieresis" unicode="&#xeb;" 
d="M180 313v133q0 55 -41 55t-41 -55v-133h82zM180 99v77h62v-77q0 -105 -103 -105t-103 105v347q0 105 103 105t103 -105v-189h-144v-158q0 -55 41 -55t41 55zM58 628v76h62v-76h-62zM158 628v76h62v-76h-62z" />
    <glyph glyph-name="igrave" unicode="&#xec;" horiz-adv-x="148" 
d="M43 0v545h62v-545h-62zM0 722h70l44 -108h-50z" />
    <glyph glyph-name="iacute" unicode="&#xed;" horiz-adv-x="148" 
d="M43 0v545h62v-545h-62zM78 722h70l-64 -108h-50z" />
    <glyph glyph-name="icircumflex" unicode="&#xee;" horiz-adv-x="148" 
d="M43 0v545h62v-545h-62zM103 614l-29 72l-29 -72h-58l44 108h86l44 -108h-58z" />
    <glyph glyph-name="idieresis" unicode="&#xef;" horiz-adv-x="148" 
d="M43 0v545h62v-545h-62zM-7 628v76h62v-76h-62zM93 628v76h62v-76h-62z" />
    <glyph glyph-name="eth" unicode="&#xf0;" 
d="M180 99v347q0 55 -41 55t-41 -55v-347q0 -55 41 -55t41 55zM216 742l26 -29l-64 -47q64 -74 64 -253v-314q0 -105 -103 -105t-103 105v347q0 105 103 105q25 0 36 -16h2q-1 26 -14 58t-26 44l-66 -48l-25 28l66 48q-28 28 -51 45l40 31q30 -23 52 -46z" />
    <glyph glyph-name="ntilde" unicode="&#xf1;" 
d="M36 0v545h58v-37h2q26 43 72 43q36 0 55 -23.5t19 -58.5v-469h-62v445q0 50 -39 50q-20 0 -31.5 -15.5t-11.5 -34.5v-445h-62zM83 632h-34q0 28 14 47.5t45 19.5q15 0 35.5 -9t26.5 -9q8 0 16 6.5t9 16.5h34q0 -28 -14 -47.5t-45 -19.5q-15 0 -35.5 9t-26.5 9
q-8 0 -16 -6.5t-9 -16.5z" />
    <glyph glyph-name="ograve" unicode="&#xf2;" 
d="M180 99v347q0 55 -41 55t-41 -55v-347q0 -55 41 -55t41 55zM36 99v347q0 105 103 105t103 -105v-347q0 -105 -103 -105t-103 105zM65 722h70l44 -108h-50z" />
    <glyph glyph-name="oacute" unicode="&#xf3;" 
d="M180 99v347q0 55 -41 55t-41 -55v-347q0 -55 41 -55t41 55zM36 99v347q0 105 103 105t103 -105v-347q0 -105 -103 -105t-103 105zM143 722h70l-64 -108h-50z" />
    <glyph glyph-name="ocircumflex" unicode="&#xf4;" 
d="M180 99v347q0 55 -41 55t-41 -55v-347q0 -55 41 -55t41 55zM36 99v347q0 105 103 105t103 -105v-347q0 -105 -103 -105t-103 105zM168 614l-29 72l-29 -72h-58l44 108h86l44 -108h-58z" />
    <glyph glyph-name="otilde" unicode="&#xf5;" 
d="M180 99v347q0 55 -41 55t-41 -55v-347q0 -55 41 -55t41 55zM36 99v347q0 105 103 105t103 -105v-347q0 -105 -103 -105t-103 105zM83 632h-34q0 28 14 47.5t45 19.5q15 0 35.5 -9t26.5 -9q8 0 16 6.5t9 16.5h34q0 -28 -14 -47.5t-45 -19.5q-15 0 -35.5 9t-26.5 9
q-8 0 -16 -6.5t-9 -16.5z" />
    <glyph glyph-name="odieresis" unicode="&#xf6;" 
d="M180 99v347q0 55 -41 55t-41 -55v-347q0 -55 41 -55t41 55zM36 99v347q0 105 103 105t103 -105v-347q0 -105 -103 -105t-103 105zM58 628v76h62v-76h-62zM158 628v76h62v-76h-62z" />
    <glyph glyph-name="divide" unicode="&#xf7;" horiz-adv-x="600" 
d="M47 228v50h506v-50h-506zM244 46q0 23 16.5 39.5t39.5 16.5t39.5 -16.5t16.5 -39.5t-16.5 -39.5t-39.5 -16.5t-39.5 16.5t-16.5 39.5zM244 460q0 23 16.5 39.5t39.5 16.5t39.5 -16.5t16.5 -39.5t-16.5 -39.5t-39.5 -16.5t-39.5 16.5t-16.5 39.5z" />
    <glyph glyph-name="oslash" unicode="&#xf8;" 
d="M100 194l80 241v11q0 55 -41 55t-41 -55v-252h2zM180 99v259h-2l-80 -241v-18q0 -55 41 -55t41 55zM212 528l20 54l23 -9l-25 -69q12 -22 12 -58v-347q0 -105 -103 -105q-49 0 -74 24l-19 -52l-23 9l24 68q-11 24 -11 56v347q0 105 103 105q47 0 73 -23z" />
    <glyph glyph-name="ugrave" unicode="&#xf9;" 
d="M242 545v-545h-58v37h-2q-26 -43 -72 -43q-36 0 -55 23.5t-19 58.5v469h62v-445q0 -50 39 -50q20 0 31.5 15.5t11.5 34.5v445h62zM65 722h70l44 -108h-50z" />
    <glyph glyph-name="uacute" unicode="&#xfa;" 
d="M242 545v-545h-58v37h-2q-26 -43 -72 -43q-36 0 -55 23.5t-19 58.5v469h62v-445q0 -50 39 -50q20 0 31.5 15.5t11.5 34.5v445h62zM143 722h70l-64 -108h-50z" />
    <glyph glyph-name="ucircumflex" unicode="&#xfb;" 
d="M242 545v-545h-58v37h-2q-26 -43 -72 -43q-36 0 -55 23.5t-19 58.5v469h62v-445q0 -50 39 -50q20 0 31.5 15.5t11.5 34.5v445h62zM168 614l-29 72l-29 -72h-58l44 108h86l44 -108h-58z" />
    <glyph glyph-name="udieresis" unicode="&#xfc;" 
d="M242 545v-545h-58v37h-2q-26 -43 -72 -43q-36 0 -55 23.5t-19 58.5v469h62v-445q0 -50 39 -50q20 0 31.5 15.5t11.5 34.5v445h62zM58 628v76h62v-76h-62zM158 628v76h62v-76h-62z" />
    <glyph glyph-name="yacute" unicode="&#xfd;" horiz-adv-x="259" 
d="M241 545l-104 -653h-62l22 108l-79 545h62l44 -367h2l53 367h62zM134 722h70l-64 -108h-50z" />
    <glyph glyph-name="thorn" unicode="&#xfe;" 
d="M36 -108v830h58v-211h2q22 40 66 40q34 0 57 -24.5t23 -81.5v-366q0 -37 -19.5 -61t-51.5 -24q-50 0 -71 40h-2v-142h-62zM180 113v330q0 58 -36 58q-46 0 -46 -60v-331q0 -26 12.5 -43t32.5 -17q37 0 37 63z" />
    <glyph glyph-name="ydieresis" unicode="&#xff;" horiz-adv-x="259" 
d="M241 545l-104 -653h-62l22 108l-79 545h62l44 -367h2l53 367h62zM49 628v76h62v-76h-62zM149 628v76h62v-76h-62z" />
    <glyph glyph-name="dotlessi" unicode="&#x131;" horiz-adv-x="148" 
d="M43 0v545h62v-545h-62z" />
    <glyph glyph-name="Lslash" unicode="&#x141;" horiz-adv-x="259" 
d="M0 244v66l51 55v357h66v-287l88 93v-66l-88 -93v-313h109v-56h-175v299z" />
    <glyph glyph-name="lslash" unicode="&#x142;" horiz-adv-x="148" 
d="M105 453l43 46v-76l-43 -46v-377h-62v309l-43 -46v76l43 46v337h62v-269z" />
    <glyph glyph-name="OE" unicode="&#x152;" horiz-adv-x="407" 
d="M212 56v610h-37q-30 0 -44 -11.5t-14 -45.5v-496q0 -34 14 -45.5t44 -11.5h37zM278 56h106v-56h-214q-59 0 -89 26t-30 72v526q0 46 30 72t89 26h211v-56h-103v-263h98v-56h-98v-291z" />
    <glyph glyph-name="oe" unicode="&#x153;" horiz-adv-x="407" 
d="M369 257h-134v-158q0 -55 36 -55t36 55v77h62v-77q0 -57 -28 -81t-70 -24q-43 0 -65 40h-2q-18 -40 -73 -40q-48 0 -70.5 25t-22.5 80v347q0 58 25.5 81.5t71.5 23.5q47 0 71 -39q31 39 78 39q39 0 62 -22t23 -83v-189zM173 84v377q0 17 -10 28.5t-26 11.5
q-17 0 -27 -12.5t-10 -33.5v-359q0 -52 37 -52q16 0 26 11.5t10 28.5zM307 313v133q0 55 -36 55t-36 -55v-133h72z" />
    <glyph glyph-name="Scaron" unicode="&#x160;" 
d="M178 535v88q0 49 -38 49t-38 -49v-76q0 -39 15 -65l105 -180q24 -40 24 -88v-114q0 -51 -28 -78.5t-78 -27.5q-108 0 -108 106v99h66v-95q0 -54 42 -54q40 0 40 54v101q0 35 -19 69l-97 169q-28 48 -28 92v87q0 106 104 106t104 -101v-92h-66zM139 789l29 72h58l-44 -108
h-86l-44 108h58z" />
    <glyph glyph-name="scaron" unicode="&#x161;" horiz-adv-x="259" 
d="M163 383v81q0 37 -32 37t-32 -39v-61q0 -21 23 -54l78 -109q22 -31 22 -60v-92q0 -44 -24 -68t-69 -24q-41 0 -66.5 21t-25.5 64v95h62v-84q0 -46 31 -46q30 0 30 47v66q0 29 -23 60l-71 97q-29 39 -29 73v70q0 44 27 69t70 25q45 0 66 -24t21 -54v-90h-58zM130 650
l29 72h58l-44 -108h-86l-44 108h58z" />
    <glyph glyph-name="Ydieresis" unicode="&#x178;" 
d="M140 394l63 328h66l-97 -408v-314h-66v314l-97 408h66l63 -328h2zM58 767v76h62v-76h-62zM158 767v76h62v-76h-62z" />
    <glyph glyph-name="Zcaron" unicode="&#x17d;" horiz-adv-x="259" 
d="M24 68l149 598h-140v56h202v-56l-149 -610h148v-56h-210v68zM130 789l29 72h58l-44 -108h-86l-44 108h58z" />
    <glyph glyph-name="zcaron" unicode="&#x17e;" horiz-adv-x="204" 
d="M18 72l104 423h-98v50h160v-54l-108 -441h110v-50h-168v72zM102 650l29 72h58l-44 -108h-86l-44 108h58z" />
    <glyph glyph-name="florin" unicode="&#x192;" horiz-adv-x="276" 
d="M104 500l8 136q5 92 80 92q12 0 32 -2v-50q-10 2 -17 2q-13 0 -22.5 -12t-10.5 -34l-8 -132h48l-4 -50h-46l-18 -472q-3 -86 -76 -86q-21 0 -36 7v50q11 -7 23 -7q24 0 27 57l18 451h-46l4 50h44z" />
    <glyph glyph-name="circumflex" unicode="&#x2c6;" horiz-adv-x="148" 
d="M103 614l-29 72l-29 -72h-58l44 108h86l44 -108h-58z" />
    <glyph glyph-name="caron" unicode="&#x2c7;" horiz-adv-x="148" 
d="M74 650l29 72h58l-44 -108h-86l-44 108h58z" />
    <glyph glyph-name="uni02C9" unicode="&#x2c9;" horiz-adv-x="148" 
d="M-15 645v44h178v-44h-178z" />
    <glyph glyph-name="breve" unicode="&#x2d8;" horiz-adv-x="148" 
d="M-17 704h34q0 -13 16 -22.5t41 -9.5t41 9.5t16 22.5h34q0 -76 -91 -76t-91 76z" />
    <glyph glyph-name="dotaccent" unicode="&#x2d9;" horiz-adv-x="148" 
d="M43 628v76h62v-76h-62z" />
    <glyph glyph-name="ring" unicode="&#x2da;" horiz-adv-x="148" 
d="M7 663q0 28 19.5 47.5t47.5 19.5t47.5 -19.5t19.5 -47.5t-19.5 -47.5t-47.5 -19.5t-47.5 19.5t-19.5 47.5zM107 663q0 13 -9.5 23t-23.5 10t-23.5 -10t-9.5 -23t9.5 -23t23.5 -10t23.5 10t9.5 23z" />
    <glyph glyph-name="ogonek" unicode="&#x2db;" horiz-adv-x="148" 
d="M127 -78l10 -22q-30 -8 -65 -8q-69 0 -69 37q0 20 23 42t53 33h36q-62 -40 -62 -65q0 -10 12 -16.5t30 -6.5q17 0 32 6z" />
    <glyph glyph-name="tilde" unicode="&#x2dc;" horiz-adv-x="148" 
d="M18 632h-34q0 28 14 47.5t45 19.5q15 0 35.5 -9t26.5 -9q8 0 16 6.5t9 16.5h34q0 -28 -14 -47.5t-45 -19.5q-15 0 -35.5 9t-26.5 9q-8 0 -16 -6.5t-9 -16.5z" />
    <glyph glyph-name="hungarumlaut" unicode="&#x2dd;" horiz-adv-x="148" 
d="M83 614l44 108h70l-64 -108h-50zM-17 614l44 108h70l-64 -108h-50z" />
    <glyph glyph-name="uni03A9" unicode="&#x3a9;" horiz-adv-x="343" 
d="M99 53v4q-68 138 -68 334q0 158 39.5 242.5t105.5 84.5q62 0 98 -86t36 -235q0 -204 -67 -340v-4h73v-53h-123v39q28 52 45.5 145.5t17.5 193.5q-1 72 -7.5 131.5t-26.5 106.5t-51 47q-40 0 -63 -77t-23 -205q0 -94 18.5 -193.5t44.5 -148.5v-39h-123v53h74z" />
    <glyph glyph-name="uni03BC" unicode="&#x3bc;" 
d="M242 545v-545h-58v37h-2q-8 -17 -23.5 -30t-31.5 -13q-20 0 -27 20h-2v-122h-62v653h62v-445q0 -50 39 -50q20 0 31.5 15.5t11.5 34.5v445h62z" />
    <glyph glyph-name="pi" unicode="&#x3c0;" horiz-adv-x="308" 
d="M286 472h-36v-345q0 -90 8 -127h-50q-10 30 -10 126v346h-78q-1 -116 -11.5 -257t-26.5 -215h-50q34 167 36 472q-23 0 -47 -6l-8 39q18 22 80 22h197z" />
    <glyph glyph-name="uni2010" unicode="&#x2010;" horiz-adv-x="166" 
d="M23 272v56h120v-56h-120z" />
    <glyph glyph-name="endash" unicode="&#x2013;" horiz-adv-x="500" 
d="M0 325h500v-50h-500v50z" />
    <glyph glyph-name="emdash" unicode="&#x2014;" horiz-adv-x="1000" 
d="M0 325h1000v-50h-1000v50z" />
    <glyph glyph-name="quoteleft" unicode="&#x2018;" horiz-adv-x="168" 
d="M29 558l56 164h54l-36 -164h-74z" />
    <glyph glyph-name="quoteright" unicode="&#x2019;" horiz-adv-x="168" 
d="M29 558l36 164h74l-56 -164h-54z" />
    <glyph glyph-name="quotesinglbase" unicode="&#x201a;" horiz-adv-x="168" 
d="M29 -88l36 164h74l-56 -164h-54z" />
    <glyph glyph-name="quotedblleft" unicode="&#x201c;" 
d="M24 558l56 164h54l-36 -164h-74zM144 558l56 164h54l-36 -164h-74z" />
    <glyph glyph-name="quotedblright" unicode="&#x201d;" 
d="M144 558l36 164h74l-56 -164h-54zM24 558l36 164h74l-56 -164h-54z" />
    <glyph glyph-name="quotedblbase" unicode="&#x201e;" 
d="M144 -88l36 164h74l-56 -164h-54zM24 -88l36 164h74l-56 -164h-54z" />
    <glyph glyph-name="dagger" unicode="&#x2020;" 
d="M108 545v177h62v-177h96v-50h-96v-495h-62v495h-96v50h96z" />
    <glyph glyph-name="daggerdbl" unicode="&#x2021;" 
d="M108 227v268h-96v50h96v177h62v-177h96v-50h-96v-268h96v-50h-96v-177h-62v177h-96v50h96z" />
    <glyph glyph-name="bullet" unicode="&#x2022;" horiz-adv-x="500" 
d="M70 361q0 74 53 127t127 53t127 -53t53 -127t-53 -127t-127 -53t-127 53t-53 127z" />
    <glyph glyph-name="ellipsis" unicode="&#x2026;" horiz-adv-x="1000" 
d="M134 0v76h66v-76h-66zM467 0v76h66v-76h-66zM800 0v76h66v-76h-66z" />
    <glyph glyph-name="perthousand" unicode="&#x2030;" horiz-adv-x="684" 
d="M139 449v208q0 31 -27 31t-27 -31v-208q2 -31 27 -31q27 0 27 31zM90 -6l250 734h50l-250 -734h-50zM394 65v208q0 31 -27 31t-27 -31v-208q2 -31 27 -31q27 0 27 31zM31 456v194q0 78 81 78t81 -78v-194q0 -78 -81 -78t-81 78zM286 72v194q0 78 81 78t81 -78v-194
q0 -78 -81 -78t-81 78zM491 72v194q0 78 81 78t81 -78v-194q0 -78 -81 -78t-81 78zM599 65v208q0 31 -27 31t-27 -31v-208q2 -31 27 -31q27 0 27 31z" />
    <glyph glyph-name="guilsinglleft" unicode="&#x2039;" horiz-adv-x="167" 
d="M28 302l57 210h54l-49 -210l49 -214h-50z" />
    <glyph glyph-name="guilsinglright" unicode="&#x203a;" horiz-adv-x="167" 
d="M77 298l-49 214h50l61 -214l-57 -210h-54z" />
    <glyph glyph-name="fraction" unicode="&#x2044;" horiz-adv-x="130" 
d="M-57 0l194 722h50l-194 -722h-50z" />
    <glyph glyph-name="Euro" unicode="&#x20ac;" horiz-adv-x="276" 
d="M272 692l-12 -56q-11 19 -31 31q-20 11 -48 11q-27 0 -40 -12q-13 -11 -13 -38v-172h103l-11 -50h-92v-74h78l-11 -50h-67v-188q0 -23 14 -37q13 -13 40 -13q26 0 46 10t34 27v-62q-12 -9 -32 -17q-21 -8 -49 -8q-52 0 -78 19q-37 28 -37 88v181h-66l11 50h55v74h-62
l11 50h51v165q0 57 32 83q30 24 80 24q32 0 60 -11q22 -9 34 -25z" />
    <glyph glyph-name="afii61289" unicode="&#x2113;" horiz-adv-x="279" 
d="M240 110l25 -23q-32 -88 -99 -88q-56 0 -77 51.5t-20 154.5q1 6 1 18q-5 -7 -15.5 -19.5t-15.5 -19.5l-18 33q30 37 49 67v272q0 228 91 228q31 0 49 -37t18 -107q0 -181 -107 -356v-49q0 -107 12.5 -148t41.5 -41q14 0 27.5 11t20 21.5t17.5 31.5zM121 556v-204
q74 145 74 291q0 92 -33 92q-41 0 -41 -179z" />
    <glyph glyph-name="trademark" unicode="&#x2122;" horiz-adv-x="990" 
d="M199 310v368h-135v44h320v-44h-135v-368h-50zM818 310v368h-2l-149 -368h-30l-149 368h-2v-368h-50v412h85l131 -336l131 336h85v-412h-50z" />
    <glyph glyph-name="Omega" unicode="&#x2126;" horiz-adv-x="343" 
d="M99 53v4q-68 138 -68 334q0 158 39.5 242.5t105.5 84.5q62 0 98 -86t36 -235q0 -204 -67 -340v-4h73v-53h-123v39q28 52 45.5 145.5t17.5 193.5q-1 72 -7.5 131.5t-26.5 106.5t-51 47q-40 0 -63 -77t-23 -205q0 -94 18.5 -193.5t44.5 -148.5v-39h-123v53h74z" />
    <glyph glyph-name="estimated" unicode="&#x212e;" horiz-adv-x="885" 
d="M850 351h-660q-6 0 -6 -5v-199q0 -14 9 -23q106 -109 250 -109q156 0 262 122h59q-56 -66 -141 -104t-182 -38q-168 0 -287.5 107.5t-119.5 258.5q0 152 119.5 259.5t287.5 107.5q170 0 289.5 -107.5t119.5 -259.5v-10zM700 377v201q0 14 -10 24q-106 104 -247 104
q-143 0 -249 -108q-10 -9 -10 -25v-196q0 -7 6 -7h505q5 0 5 7z" />
    <glyph glyph-name="partialdiff" unicode="&#x2202;" horiz-adv-x="304" 
d="M60 706l-18 50q43 47 90 47q61 0 103.5 -87t42.5 -286q0 -221 -39.5 -325.5t-107.5 -104.5q-47 0 -75 57t-28 165q0 118 39 194t89 76q45 0 68 -52h2v26q0 123 -27.5 203t-71.5 80q-37 0 -67 -43zM136 54h1q34 0 58 86.5t27 220.5q-17 78 -60 78q-33 0 -56.5 -64
t-23.5 -153q0 -168 54 -168z" />
    <glyph glyph-name="uni2206" unicode="&#x2206;" horiz-adv-x="333" 
d="M22 0v37l118 686h57l116 -685v-38h-291zM74 50h184l-66 404q-3 25 -12.5 80t-12.5 85h-3q-1 -12 -24 -162z" />
    <glyph glyph-name="product" unicode="&#x220f;" horiz-adv-x="372" 
d="M352 652h-46v-750h-53v750h-135v-750h-53v750h-45v58h332v-58z" />
    <glyph glyph-name="summation" unicode="&#x2211;" horiz-adv-x="304" 
d="M292 -98h-274v45l145 357l-138 362v44h250v-51h-184v-4l130 -339l-145 -351v-4h216v-59z" />
    <glyph glyph-name="minus" unicode="&#x2212;" horiz-adv-x="600" 
d="M47 228v50h506v-50h-506z" />
    <glyph glyph-name="uni2215" unicode="&#x2215;" horiz-adv-x="130" 
d="M-57 0l194 722h50l-194 -722h-50z" />
    <glyph glyph-name="uni2219" unicode="&#x2219;" horiz-adv-x="138" 
d="M13 319q0 23 16.5 39.5t39.5 16.5t39.5 -16.5t16.5 -39.5t-16.5 -39.5t-39.5 -16.5t-39.5 16.5t-16.5 39.5z" />
    <glyph glyph-name="radical" unicode="&#x221a;" horiz-adv-x="351" 
d="M337 846l-124 -1002h-45l-96 480l-42 -15l-9 38l91 32l64 -337q12 -82 12 -92l1 -1q2 38 8 85l102 812h38z" />
    <glyph glyph-name="infinity" unicode="&#x221e;" horiz-adv-x="526" 
d="M494 299v-1q0 -50 -31 -81.5t-74 -31.5q-63 0 -126 78q-33 -38 -61.5 -58t-66.5 -20q-44 0 -74.5 31.5t-30.5 78.5q0 48 30 79.5t78 31.5q63 0 128 -79q1 1 11 12t12 13l11.5 11.5t13 12t12.5 9.5t15 9t15 6t18 5t19 1q45 0 73 -29.5t28 -77.5zM139 221h1q20 0 42 14
t29.5 22t31.5 36q-20 26 -32 39t-33 25.5t-43 12.5q-31 0 -48.5 -21.5t-16.5 -54.5q0 -31 20 -52t49 -21zM389 370h-1q-9 0 -18 -2.5t-17.5 -8t-15.5 -10.5t-15.5 -14t-12.5 -13t-13 -14t-10 -12q37 -43 57.5 -59t46.5 -16q30 0 48 22t18 52q0 36 -18 55.5t-49 19.5z" />
    <glyph glyph-name="integral" unicode="&#x222b;" horiz-adv-x="246" 
d="M225 857l-10 -44q-10 5 -18 5q-19 0 -31 -27q-19 -39 -19 -181q0 -78 3 -257t3 -261q0 -151 -29 -208q-22 -44 -70 -44q-20 0 -34 10l10 46q15 -5 21 -5q19 0 31 28q16 39 16 173q0 83 -3 264t-3 259q0 154 34 211q25 39 68 39q17 0 31 -8z" />
    <glyph glyph-name="approxequal" unicode="&#x2248;" horiz-adv-x="320" 
d="M273 394l27 -17q-10 -33 -31.5 -54.5t-49.5 -21.5q-27 0 -64 27q-34 25 -53 25q-34 0 -54 -54l-28 17q12 34 34.5 54.5t49.5 20.5q29 0 69 -28q37 -25 50 -25q26 0 50 56zM273 280l27 -18q-11 -34 -32 -55t-49 -21q-24 0 -64 28q-37 25 -52 25q-35 0 -55 -55l-28 17
q12 35 34.5 55.5t50.5 20.5q9 0 17 -1.5t16.5 -6t13 -6.5t12.5 -8t9 -6q36 -25 50 -25q29 0 50 56z" />
    <glyph glyph-name="notequal" unicode="&#x2260;" horiz-adv-x="320" 
d="M232 431l-24 -58h80v-41h-93l-36 -91h129v-40h-143l-27 -68l-29 12l22 56h-80v40h94l35 91h-129v41h142l28 70z" />
    <glyph glyph-name="lessequal" unicode="&#x2264;" horiz-adv-x="320" 
d="M287 143l-254 169v40l254 169v-51l-213 -136v-2l213 -138v-51zM289 68h-257v42h257v-42z" />
    <glyph glyph-name="greaterequal" unicode="&#x2265;" horiz-adv-x="320" 
d="M34 521l254 -169v-40l-254 -169v51l214 136v2l-214 138v51zM290 68h-257v42h257v-42z" />
    <glyph glyph-name="lozenge" unicode="&#x25ca;" horiz-adv-x="352" 
d="M317 355l-120 -374h-47l-116 374l120 374h47zM265 353l-77 257q-5 17 -11 59h-2q-6 -42 -11 -59l-78 -254l78 -259q6 -22 9 -57h4q3 35 10 56z" />
    <glyph glyph-name="fi" unicode="&#xfb01;" horiz-adv-x="315" 
d="M210 0v545h62v-545h-62zM208 646v76h66v-76h-66zM46 0v495h-31v50h31v100q0 41 17 62t61 21h28v-50h-13q-31 0 -31 -41v-92h44v-50h-44v-495h-62z" />
    <glyph glyph-name="fl" unicode="&#xfb02;" horiz-adv-x="315" 
d="M210 0v722h62v-722h-62zM46 0v495h-31v50h31v100q0 41 17 62t61 21h28v-50h-13q-31 0 -31 -41v-92h44v-50h-44v-495h-62z" />
    <glyph glyph-name="a.superior" horiz-adv-x="180" 
d="M111 459v109q-21 -2 -31.5 -10.5t-10.5 -27.5v-69q0 -36 19 -36q23 0 23 34zM111 600v68q0 28 -18 28q-21 0 -21 -32v-29h-46v39q0 24 19.5 39t48.5 15q63 0 63 -57v-274h-37v17h-2q-19 -21 -47 -21q-23 0 -35.5 14.5t-12.5 39.5v78q0 41 19 56.5t69 18.5z" />
    <glyph glyph-name="o.superior" horiz-adv-x="180" 
d="M67 663v-205q0 -33 23 -33t23 33v205q0 33 -23 33t-23 -33zM159 665v-209q0 -63 -69 -63t-69 63v209q0 63 69 63t69 -63z" />
    <glyph glyph-name="one.superior" horiz-adv-x="181" 
d="M68 291v383h-2q-5 -9 -33 -26v44q21 10 48 32h37v-433h-50z" />
    <glyph glyph-name="two.superior" horiz-adv-x="181" 
d="M21 291v40l77 214q15 41 15 83v28q0 36 -20 36t-20 -36v-43h-46v50q0 65 68 65q64 0 64 -64v-42q0 -39 -19 -92l-72 -199h92v-40h-139z" />
    <glyph glyph-name="three.superior" horiz-adv-x="181" 
d="M65 496v40h14q33 0 33 31v89q0 36 -21 36q-22 0 -22 -36v-45h-46v51q0 66 68 66q67 0 67 -66v-112q0 -19 -7.5 -26t-23.5 -8v-2q16 0 23.5 -7t7.5 -26v-128q0 -66 -67 -66q-68 0 -68 66v59h46v-53q0 -36 22 -36q21 0 21 36v106q0 31 -33 31h-14z" />
    </font>
</defs>
</svg>
